HIERARCHY
ROOT Hips
{
	OFFSET 0.00000 0.00000 0.00000
	CHANNELS 6 Xposition Yposition Zposition Zrotation Yrotation Xrotation 
	JOINT LHipJoint
	{
		OFFSET 0 0 0
		CHANNELS 3 Zrotation Yrotation Xrotation
		JOINT LeftHip
		{
			OFFSET 1.81638 -1.86202 0.89635
			CHANNELS 3 Zrotation Yrotation Xrotation
			JOINT LeftKnee
			{
				OFFSET 2.63464 -7.23861 0.00000
				CHANNELS 3 Zrotation Yrotation Xrotation
				JOINT LeftAnkle
				{
					OFFSET 2.45871 -6.75336 0.00000
					CHANNELS 3 Zrotation Yrotation Xrotation
					JOINT LeftToe
					{
						OFFSET 0.34235 -0.94059 2.20020
						CHANNELS 3 Zrotation Yrotation Xrotation
						End Site
						{
							OFFSET 0.00000 -0.00000 1.18611
						}
					}
				}
			}
		}
	}
	JOINT RHipJoint
	{
		OFFSET 0 0 0
		CHANNELS 3 Zrotation Yrotation Xrotation
		JOINT RightHip
		{
			OFFSET -1.84405 -1.86203 0.89635
			CHANNELS 3 Zrotation Yrotation Xrotation
			JOINT RightKnee
			{
				OFFSET -2.71067 -7.44751 0.00000
				CHANNELS 3 Zrotation Yrotation Xrotation
				JOINT RightAnkle
				{
					OFFSET -2.47159 -6.79060 0.00000
					CHANNELS 3 Zrotation Yrotation Xrotation
					JOINT RightToe
					{
						OFFSET -0.26223 -0.72048 2.36007
						CHANNELS 3 Zrotation Yrotation Xrotation
						End Site
						{
							OFFSET -0.00000 -0.00000 1.23343
						}
					}
				}
			}
		}
	}
	JOINT lowerback
	{
		OFFSET 0 0 0
		CHANNELS 3 Zrotation Yrotation Xrotation
		JOINT Chest
		{
			OFFSET 0.02089 1.99248 -0.22512
			CHANNELS 3 Zrotation Yrotation Xrotation
			JOINT Chest2
			{
				OFFSET 0.01476 2.01356 -0.03079
				CHANNELS 3 Zrotation Yrotation Xrotation
				JOINT lowerneck
				{
					OFFSET 0 0 0
					CHANNELS 3 Zrotation Yrotation Xrotation
					JOINT Neck
					{
						OFFSET 0.04846 1.65098 0.06663
						CHANNELS 3 Zrotation Yrotation Xrotation
						JOINT Head
						{
							OFFSET -0.06061 1.60634 -0.07565
							CHANNELS 3 Zrotation Yrotation Xrotation
							End Site
							{
								OFFSET -0.02954 1.73562 -0.03642
							}
						}
					}
				}
				JOINT LeftCollar
				{
					OFFSET 0 0 0
					CHANNELS 3 Zrotation Yrotation Xrotation
					JOINT LeftShoulder
					{
						OFFSET 3.45234 1.47051 -0.06993
CHANNELS 3 Zrotation Xrotation Yrotation
						JOINT LeftElbow
						{
OFFSET 0 -5.493130 0.000000
CHANNELS 3 Zrotation Xrotation Yrotation
							JOINT LeftWrist
							{
OFFSET 0 -3.290370 0.000000
CHANNELS 3 Zrotation Xrotation Yrotation
								JOINT lhand
								{
									OFFSET 0 0 0
CHANNELS 3 Zrotation Xrotation Yrotation
									JOINT LFingers
									{
OFFSET 0 -0.729660 0.000000
CHANNELS 3 Zrotation Xrotation Yrotation
										End Site
										{
OFFSET 0 -0.588270 0.000000
										}
									}
								}
								JOINT LThumb
								{
OFFSET 0 0.000000 0.000000
CHANNELS 3 Zrotation Xrotation Yrotation
									End Site
									{
OFFSET 0 -0.597250 0.597250
									}
								}
							}
						}
					}
				}
				JOINT RightCollar
				{
					OFFSET 0 0 0
					CHANNELS 3 Zrotation Yrotation Xrotation
					JOINT RightShoulder
					{
						OFFSET -3.41935 1.44327 0.20453
CHANNELS 3 Zrotation Xrotation Yrotation
						JOINT RightElbow
						{
OFFSET 0 -5.236840 0.000000
CHANNELS 3 Zrotation Xrotation Yrotation
							JOINT RightWrist
							{
OFFSET 0 -3.382510 0.000000
CHANNELS 3 Zrotation Xrotation Yrotation
								JOINT rhand
								{
									OFFSET 0 0 0
CHANNELS 3 Zrotation Xrotation Yrotation
									JOINT RFingers
									{
OFFSET 0 -0.691450 0.000000
CHANNELS 3 Zrotation Xrotation Yrotation
										End Site
										{
OFFSET 0 -0.557470 0.000000
										}
									}
								}
								JOINT RThumb
								{
OFFSET 0 0.000000 0.000000
CHANNELS 3 Zrotation Xrotation Yrotation
									End Site
									{
OFFSET 0 -0.565980 0.565980
									}
								}
							}
						}
					}
				}
			}
		}
	}
}
MOTION
Frames: 12
Frame Time: 0.008333333333333333
-32.134900 17.568100 -1.536200 -40.030300 81.203500 -41.678900 0.000000 0.000000 0.000000 -10.547600 -2.822200 -21.186200 3.150000 10.934000 32.057700 0.312900 -0.885100 -10.291500 0.262300 3.294800 9.100700 0.000000 0.000000 0.000000 29.926000 -1.883000 3.809300 -0.894400 -6.027700 16.864900 -0.548800 -16.009100 -27.395000 -0.037800 -1.255400 3.451900 0.930400 -2.095900 16.432900 4.048700 -2.005300 8.631300 4.057500 -0.843900 0.103400 0.174000 5.695200 -4.924700 -6.699900 8.662900 12.263000 -1.586900 3.933000 4.797600 0.000000 0.000000 0.000000 1.204600 6.196900 -18.841000 26.428700 -37.628900 9.148200 -1.400700 0.044400 -12.926300 0.000000 0.000000 0.000000 -7.125000 0.000000 0.000000 -25.259200 41.439100 -2.390800 0.000000 0.000000 0.000000 -19.056000 5.146800 42.641300 -22.234600 -33.241200 -6.714000 -2.933300 5.022700 16.658600 0.000000 0.000000 0.000000 7.125000 0.000000 -0.000000 23.029500 45.312900 -0.188000
-32.114259 17.570325 -1.544305 -40.148894 81.319837 -41.730804 0.000000 0.000000 0.000000 -10.669260 -2.952221 -21.166659 3.146525 10.928581 32.039252 0.308908 -0.962547 -10.203811 0.262248 3.294531 9.099729 0.000000 0.000000 0.000000 29.841662 -1.837533 3.840291 -0.891320 -6.017587 16.835414 -0.536632 -16.141942 -27.454232 -0.033921 -1.188725 3.268278 0.904819 -2.022156 16.348804 3.951151 -1.925353 8.510233 3.954065 -0.805843 0.009255 -0.807284 5.899828 -2.723515 -4.866691 8.497326 9.096409 -1.113462 4.023517 3.640022 0.000000 0.000000 0.000000 1.522184 6.503528 -18.912656 26.164268 -37.370317 8.987182 -1.725967 0.151775 -13.181867 0.000000 0.000000 0.000000 -7.125000 0.000000 0.000000 -25.624273 41.638072 -2.294034 0.000000 0.000000 0.000000 -18.898212 5.636086 42.333392 -22.155640 -33.152494 -6.670760 -0.753230 4.740935 17.052846 0.000000 0.000000 0.000000 7.125000 0.000000 0.000000 25.092950 45.408961 -0.272831
-32.095580 17.571712 -1.552698 -40.636311 81.420457 -42.152146 0.000000 0.000000 0.000000 -10.728210 -3.127586 -21.177877 3.154910 10.941680 32.083359 0.307835 -1.011533 -10.173674 0.256232 3.256733 8.994339 0.000000 0.000000 0.000000 29.826454 -1.759640 3.893286 -0.885323 -5.997933 16.778389 -0.531011 -16.274366 -27.563192 -0.037406 -1.247924 3.431293 0.901177 -2.030268 16.400475 3.914064 -1.936234 8.466061 3.920862 -0.810804 -0.065658 -1.046424 5.905901 -2.260175 -4.518123 8.432403 8.520016 -0.984460 4.015305 3.316582 0.000000 0.000000 0.000000 1.642969 6.589195 -18.659359 25.918803 -37.128212 8.838619 -2.132790 0.268615 -13.365782 0.000000 0.000000 0.000000 -7.125000 0.000000 0.000000 -26.030638 41.763445 -2.249284 0.000000 0.000000 0.000000 -18.927525 5.824443 42.251378 -22.162395 -33.160004 -6.674465 1.759617 3.801520 17.826445 0.000000 0.000000 0.000000 7.125000 0.000000 0.000000 27.613238 45.791692 -0.592189
-32.077335 17.573174 -1.560956 -41.080850 81.502369 -42.509422 0.000000 0.000000 0.000000 -10.764355 -3.280955 -21.208742 3.165984 10.959043 32.142007 0.313572 -1.116175 -10.243909 0.269534 3.339350 9.224995 0.000000 0.000000 0.000000 29.812191 -1.705245 3.905930 -0.880215 -5.980929 16.729182 -0.522609 -16.379172 -27.620014 -0.044030 -1.353482 3.721904 0.874410 -2.042291 16.454774 3.901717 -1.952906 8.463941 3.927536 -0.819111 -0.094726 -1.035402 5.820372 -2.453279 -4.578435 8.337311 8.713646 -0.997269 3.961200 3.416021 0.000000 0.000000 0.000000 1.674839 6.584001 -18.281337 25.744815 -36.955514 8.733806 -2.414942 0.354958 -13.630154 0.000000 0.000000 0.000000 -7.125000 0.000000 0.000000 -26.366813 41.972649 -2.134526 0.000000 0.000000 0.000000 -19.017139 5.861772 42.298116 -22.087062 -33.075188 -6.633325 3.687625 2.761689 18.345719 0.000000 0.000000 0.000000 7.125000 0.000000 0.000000 29.512054 46.008252 -0.804879
-32.058598 17.574556 -1.569432 -41.426809 81.581628 -42.769330 0.000000 0.000000 0.000000 -10.816392 -3.409911 -21.256546 3.181447 10.983161 32.223116 0.318230 -1.227959 -10.296119 0.272147 3.355843 9.270958 0.000000 0.000000 0.000000 29.781546 -1.656689 3.919571 -0.874864 -5.963431 16.678347 -0.514196 -16.475336 -27.667885 -0.049616 -1.437458 3.953325 0.856296 -2.032522 16.488995 3.866010 -1.943410 8.430633 3.899968 -0.814446 -0.149647 -1.227401 5.799582 -2.118441 -4.278568 8.250240 8.252898 -0.887405 3.936940 3.164025 0.000000 0.000000 0.000000 1.775769 6.662782 -18.000678 25.579478 -36.790453 8.634638 -2.705981 0.429526 -13.989786 0.000000 0.000000 0.000000 -7.125000 0.000000 0.000000 -26.749674 42.265198 -1.960311 0.000000 0.000000 0.000000 -19.023646 5.961880 42.252564 -21.944611 -32.914367 -6.555769 5.531742 1.880648 18.763318 0.000000 0.000000 0.000000 7.125000 0.000000 0.000000 31.289577 46.134264 -0.971585
-32.040123 17.575629 -1.578323 -41.776490 81.649046 -43.027361 0.000000 0.000000 0.000000 -10.863274 -3.514579 -21.320606 3.196727 11.006886 32.303083 0.320756 -1.331337 -10.314839 0.265191 3.312764 9.150781 0.000000 0.000000 0.000000 29.755105 -1.612956 3.911257 -0.872178 -5.954271 16.651877 -0.510249 -16.549862 -27.724167 -0.053653 -1.494305 4.109964 0.841444 -2.027155 16.530294 3.838585 -1.937855 8.409072 3.880243 -0.811511 -0.195280 -1.325518 5.747380 -2.007532 -4.138164 8.156781 8.062812 -0.835361 3.897570 3.063862 0.000000 0.000000 0.000000 1.858209 6.722623 -17.714535 25.439920 -36.650291 8.551183 -3.022712 0.485540 -14.411341 0.000000 0.000000 0.000000 -7.125000 0.000000 0.000000 -27.183002 42.608621 -1.745083 0.000000 0.000000 0.000000 -19.044975 6.008354 42.226724 -21.779803 -32.727224 -6.466403 7.216005 1.033569 19.178454 0.000000 0.000000 0.000000 7.125000 0.000000 0.000000 32.925966 46.270048 -1.158611
-32.021647 17.576396 -1.587486 -42.034380 81.703536 -43.186108 0.000000 0.000000 0.000000 -10.913525 -3.589366 -21.400363 3.211971 11.030542 32.382893 0.323441 -1.436216 -10.336553 0.248606 3.207667 8.857592 0.000000 0.000000 0.000000 29.721231 -1.574439 3.887195 -0.870307 -5.948144 16.634011 -0.507374 -16.604517 -27.766217 -0.056208 -1.529687 4.207600 0.824840 -2.015021 16.568368 3.810843 -1.924121 8.389169 3.859573 -0.804611 -0.237787 -1.404258 5.684349 -1.950960 -4.028584 8.056428 7.930995 -0.794182 3.852279 2.996964 0.000000 0.000000 0.000000 1.946572 6.791716 -17.469275 25.330714 -36.540080 8.486031 -3.346742 0.492966 -14.907651 0.000000 0.000000 0.000000 -7.125000 0.000000 0.000000 -27.658250 43.015773 -1.476334 0.000000 0.000000 0.000000 -19.072771 6.045133 42.237579 -21.599806 -32.521757 -6.369403 8.653898 0.283762 19.546795 0.000000 0.000000 0.000000 7.125000 0.000000 0.000000 34.327463 46.391457 -1.336901
-32.003172 17.577029 -1.596850 -42.173456 81.742812 -43.221505 0.000000 0.000000 0.000000 -10.968070 -3.636545 -21.491056 3.227540 11.054504 32.463976 0.326559 -1.527606 -10.368352 0.223752 3.044311 8.402161 0.000000 0.000000 0.000000 29.678538 -1.538874 3.851414 -0.869471 -5.945427 16.626153 -0.505742 -16.637635 -27.792173 -0.057672 -1.549511 4.262174 0.804712 -1.993112 16.601396 3.783109 -1.898366 8.371633 3.838743 -0.791862 -0.275811 -1.471704 5.612968 -1.925252 -3.939465 7.949060 7.830205 -0.760214 3.802102 2.948063 0.000000 0.000000 0.000000 2.047232 6.875547 -17.295036 25.250316 -36.458716 8.438181 -3.685574 0.434171 -15.431281 0.000000 0.000000 0.000000 -7.125000 0.000000 0.000000 -28.163486 43.443222 -1.182620 0.000000 0.000000 0.000000 -19.121604 6.097008 42.311661 -21.423039 -32.318791 -6.274615 9.820594 -0.299100 19.826788 0.000000 0.000000 0.000000 7.125000 0.000000 0.000000 35.451543 46.469646 -1.470387
-31.984784 17.577337 -1.606327 -42.193131 81.766488 -43.133680 0.000000 0.000000 0.000000 -11.026309 -3.660947 -21.591087 3.243032 11.078447 32.544956 0.329208 -1.588637 -10.400546 0.197142 2.858964 7.886384 0.000000 0.000000 0.000000 29.628924 -1.502543 3.808659 -0.869138 -5.944127 16.622493 -0.505689 -16.650534 -27.807131 -0.057100 -1.542512 4.242925 0.782482 -1.956333 16.628841 3.754065 -1.854230 8.350075 3.814506 -0.770115 -0.316366 -1.581249 5.548336 -1.828435 -3.785643 7.838934 7.626707 -0.702487 3.754330 2.846371 0.000000 0.000000 0.000000 2.175864 6.993827 -17.235602 25.200635 -36.408386 8.408733 -4.035533 0.291160 -15.938393 0.000000 0.000000 0.000000 -7.125000 0.000000 0.000000 -28.678025 43.851944 -0.890290 0.000000 0.000000 0.000000 -19.200518 6.210924 42.479417 -21.285517 -32.160088 -6.201257 10.702660 -0.691199 20.004075 0.000000 0.000000 0.000000 7.125000 0.000000 0.000000 36.279529 46.497660 -1.543585
-31.966221 17.577678 -1.615778 -42.103362 81.773306 -42.937905 0.000000 0.000000 0.000000 -11.083215 -3.673495 -21.687418 3.258684 11.102452 32.626256 0.333928 -1.624496 -10.469190 0.172621 2.675298 7.376064 0.000000 0.000000 0.000000 29.575396 -1.464892 3.770042 -0.868467 -5.942005 16.616333 -0.504900 -16.650099 -27.800649 -0.057139 -1.542756 4.243528 0.754876 -1.912213 16.656391 3.729370 -1.800717 8.337860 3.796237 -0.743864 -0.347125 -1.660782 5.469668 -1.821858 -3.695848 7.723758 7.529415 -0.665912 3.699474 2.802613 0.000000 0.000000 0.000000 2.315373 7.123523 -17.282804 25.176955 -36.384316 8.394644 -4.387976 0.070270 -16.380715 0.000000 0.000000 0.000000 -7.125000 0.000000 0.000000 -29.171884 44.200492 -0.632008 0.000000 0.000000 0.000000 -19.330649 6.354003 42.766224 -21.186984 -32.045939 -6.148870 11.321058 -0.900009 20.065289 0.000000 0.000000 0.000000 7.125000 0.000000 0.000000 36.821491 46.464062 -1.538813
-31.947680 17.577996 -1.625012 -41.945514 81.769270 -42.678183 0.000000 0.000000 0.000000 -11.139156 -3.683174 -21.775877 3.274249 11.126238 32.706856 0.340399 -1.635629 -10.572213 0.151945 2.511220 6.920864 0.000000 0.000000 0.000000 29.519289 -1.428242 3.738314 -0.867315 -5.937982 16.604709 -0.505358 -16.636407 -27.788174 -0.056807 -1.538288 4.231177 0.723672 -1.860019 16.684688 3.706064 -1.737157 8.329446 3.779737 -0.712656 -0.374625 -1.760588 5.394276 -1.787753 -3.581047 7.608246 7.386509 -0.619501 3.645938 2.736437 0.000000 0.000000 0.000000 2.476107 7.279085 -17.446438 25.176727 -36.384092 8.394556 -4.737514 -0.207688 -16.677004 0.000000 0.000000 0.000000 -7.125000 0.000000 0.000000 -29.600429 44.419256 -0.467040 0.000000 0.000000 0.000000 -19.499289 6.550975 43.151529 -21.145373 -31.997633 -6.126792 11.745064 -0.977303 20.042132 0.000000 0.000000 0.000000 7.125000 0.000000 0.000000 37.153713 46.387025 -1.475837
-31.929078 17.578284 -1.634123 -41.752609 81.758837 -42.388275 0.000000 0.000000 0.000000 -11.194974 -3.691135 -21.856684 3.289538 11.149626 32.786108 0.347911 -1.623362 -10.693783 0.137425 2.389620 6.583572 0.000000 0.000000 0.000000 29.462022 -1.394775 3.714670 -0.865336 -5.931541 16.585798 -0.507164 -16.613563 -27.774909 -0.055680 -1.522370 4.187413 0.689816 -1.801686 16.715485 3.683574 -1.665768 8.323213 3.764382 -0.677640 -0.401565 -1.883481 5.324047 -1.710969 -3.431176 7.493388 7.179325 -0.560468 3.594753 2.638754 0.000000 0.000000 0.000000 2.658284 7.468355 -17.726207 25.202165 -36.409933 8.409598 -5.065766 -0.523670 -16.879104 0.000000 0.000000 0.000000 -7.125000 0.000000 0.000000 -29.969286 44.556931 -0.361742 0.000000 0.000000 0.000000 -19.686601 6.780811 43.590589 -21.137280 -31.988229 -6.122452 12.027157 -0.971574 19.954399 0.000000 0.000000 0.000000 7.125000 0.000000 0.000000 37.331585 46.276149 -1.367449
